<svg xmlns="http://www.w3.org/2000/svg" viewBox="0 0 344.44 60.24"><title>Asset 1</title><g id="Layer_2" data-name="Layer 2"><g id="Layer_1-2" data-name="Layer 1"><path d="M39.94,38.46c-2.18,10-9.28,17-19.34,17C8.58,55.46,0,45.32,0,32.06,0,18.64,8.58,8.82,20.59,8.82c9.75,0,16.77,6.63,19.19,16.07L34,25.12c-2.1-6.32-6.79-11.39-13.26-11.39-8.5,0-14.9,8.58-14.9,18.33s6.4,18.57,14.9,18.57c6.63,0,11.47-5.93,13.5-12.4Z"/><path d="M83,53.75l-.08-9.91C80.42,50.47,75,55.46,66.69,55.46c-9.12,0-14.82-5.77-14.82-17.71V10.53h5.85V36.82c.08,9.59,3.9,13.89,10.92,13.89,8,0,14-6.94,14.27-19.35V10.53h5.85V53.75Z"/><path d="M105.22,53.75V10.53h5.7l.08,10.3c2.81-7.72,8.5-12,14.2-12v5.62c-4.76-.23-14.12,4.76-14.12,20.67V53.75Z"/><path d="M172.62,53.75H167l-.23-9c-2.89,6.4-8,10.69-15,10.69-11.08,0-19.27-10-19.27-23.48s8.11-23.17,19.27-23.17c6.94,0,12.09,4.13,15,10.45l.23-8.74h5.62ZM167,32c0-10.53-6.24-18.17-14.35-18.17S138.37,22.15,138.37,32s6.08,18.49,14.28,18.49S167,42.51,167,32Z"/><path d="M206.62,54a16.82,16.82,0,0,1-4.21.47c-6.71,0-10.61-3.67-10.61-13.42V14.51h-5.15v-4h5.15V0h5.85V10.53h7.72v4h-7.72V40.64c0,6.71,2,9.13,6.16,9.13a20.3,20.3,0,0,0,2.81-.16Z"/><path d="M255.69,39.39c-.16,5.85-7.72,16.07-19.27,16.07S216,45.17,216,32.3c0-13.1,9-23.48,20.2-23.48S255.85,19,256,30.34v3H221.83c.55,10.06,6.86,17.32,14.82,17.32,8.35,0,13.26-7.25,13.57-11.23Zm-5.38-10.3c-1.17-9-7-15.45-14-15.45-7.18,0-13.18,6.4-14.28,15.45Z"/><path d="M344.44,6.14a2.76,2.76,0,0,0-1-2.13,2.54,2.54,0,0,0-2.35-.56L303,10.51a2.78,2.78,0,0,0-2.24,2.8V34.92A14,14,0,0,0,292.24,32a14.11,14.11,0,1,0,14.11,14.11V15.43l32.49-6V28.2a14,14,0,0,0-8.51-2.91A14.11,14.11,0,1,0,344.44,39.4v-.11h0Zm-52.2,48.5a8.51,8.51,0,1,1,8.51-8.51A8.51,8.51,0,0,1,292.24,54.64ZM330.33,48a8.51,8.51,0,1,1,8.51-8.51A8.51,8.51,0,0,1,330.33,48Z"/></g></g></svg>